<?xml version="1.0" standalone="no"?>
<!DOCTYPE svg PUBLIC "-//W3C//DTD SVG 20010904//EN"
 "http://www.w3.org/TR/2001/REC-SVG-20010904/DTD/svg10.dtd">
<svg version="1.0" xmlns="http://www.w3.org/2000/svg"
 width="400.000000pt" height="300.000000pt" viewBox="0 0 400.000000 300.000000"
 preserveAspectRatio="xMidYMid meet">

<g transform="translate(0.000000,300.000000) scale(0.100000,-0.100000)"
fill="#000000" stroke="none">
<path d="M1905 2011 c-46 -27 -140 -102 -105 -85 13 7 13 5 2 -8 -10 -13 -10
-17 4 -22 11 -4 14 -13 11 -27 -5 -20 -5 -20 15 -2 14 12 18 13 13 3 -5 -8 11
2 35 23 24 20 65 48 91 61 l48 23 -32 31 -32 31 -50 -28z"/>
<path d="M2591 1884 c0 -11 3 -14 6 -6 3 7 2 16 -1 19 -3 4 -6 -2 -5 -13z"/>
<path d="M2235 1840 c10 -11 20 -20 23 -20 3 0 -3 9 -13 20 -10 11 -20 20 -23
20 -3 0 3 -9 13 -20z"/>
<path d="M1726 1838 c3 -5 10 -6 15 -3 13 9 11 12 -6 12 -8 0 -12 -4 -9 -9z"/>
<path d="M2164 1838 c3 -21 17 -39 26 -33 5 3 11 1 14 -4 4 -5 -13 -12 -36
-16 -63 -11 -130 -49 -157 -89 -13 -20 -27 -33 -32 -30 -5 3 -9 2 -8 -3 3 -19
-2 -34 -10 -29 -5 3 -9 0 -8 -7 1 -30 -4 -48 -12 -43 -4 3 -6 -6 -3 -21 3 -14
1 -23 -4 -20 -5 3 -9 -17 -9 -44 0 -27 4 -49 9 -49 4 0 6 -9 3 -20 -3 -11 -1
-20 5 -20 6 0 8 -7 4 -15 -3 -8 -1 -15 5 -15 6 0 8 -4 5 -9 -3 -5 1 -12 10
-15 9 -4 15 -9 12 -12 -7 -6 64 -79 75 -76 4 1 7 -3 7 -9 0 -5 5 -7 10 -4 6 3
10 1 10 -5 0 -6 5 -8 10 -5 6 3 10 1 10 -5 0 -6 5 -8 10 -5 6 3 10 1 10 -5 0
-8 9 -10 25 -6 14 4 25 2 25 -4 0 -5 7 -10 15 -10 27 0 16 -17 -57 -81 -39
-35 -79 -72 -90 -81 -10 -10 -24 -18 -31 -18 -34 0 -217 144 -217 170 0 6 -4
10 -10 10 -5 0 -10 7 -10 15 0 8 -5 15 -11 15 -5 0 -7 5 -4 10 3 6 1 10 -5 10
-6 0 -8 5 -5 10 3 6 1 10 -5 10 -6 0 -8 5 -5 10 3 6 1 10 -5 10 -6 0 -8 5 -5
10 3 6 1 10 -5 10 -7 0 -10 7 -6 15 3 8 1 15 -5 15 -6 0 -8 9 -4 20 4 12 2 20
-5 20 -8 0 -10 13 -5 43 4 30 3 38 -4 27 -8 -11 -11 1 -10 45 0 44 3 55 10 40
6 -13 7 -4 2 29 -3 31 -2 47 4 43 6 -4 8 4 5 20 -4 19 -2 24 8 18 9 -5 11 -4
6 4 -9 15 3 53 15 46 5 -3 6 2 2 11 -4 12 -3 15 5 10 8 -5 10 -1 5 10 -4 12
-3 15 5 10 8 -5 10 -1 5 10 -5 13 -3 15 7 9 9 -6 11 -4 5 5 -6 10 -11 9 -20
-4 -13 -18 -35 -18 -47 -1 -4 6 -12 -5 -19 -22 -6 -19 -16 -30 -22 -26 -6 3
-7 1 -3 -5 8 -14 -3 -64 -14 -57 -4 2 -5 -7 -2 -22 3 -14 1 -23 -4 -20 -5 3
-8 -18 -7 -46 2 -38 0 -47 -6 -32 -7 15 -10 4 -10 -40 0 -45 3 -55 10 -40 7
15 8 8 5 -27 -2 -27 1 -48 6 -48 5 0 6 -9 3 -20 -4 -12 -2 -20 5 -20 7 0 10
-7 6 -15 -3 -8 -1 -15 5 -15 6 0 9 -7 5 -15 -3 -8 -1 -15 5 -15 6 0 7 -4 4
-10 -3 -5 -2 -10 4 -10 6 0 8 -6 5 -13 -2 -7 4 -22 15 -34 11 -11 17 -24 14
-27 -4 -3 -1 -6 5 -6 7 0 12 -7 12 -15 0 -9 7 -18 15 -21 8 -4 15 -12 15 -19
0 -18 93 -100 149 -132 25 -15 48 -28 51 -30 7 -6 -142 -142 -163 -149 -48
-16 -214 144 -292 281 -16 28 -32 52 -35 55 -3 3 -7 14 -8 25 -2 11 -8 22 -13
23 -5 2 -7 8 -3 13 3 5 1 9 -5 9 -6 0 -8 7 -5 15 4 8 1 15 -6 15 -7 0 -9 8 -5
21 5 15 4 19 -4 14 -8 -5 -10 1 -5 21 5 20 4 25 -6 19 -9 -6 -10 0 -5 24 4 17
3 31 -2 31 -4 0 -8 59 -9 130 0 72 3 125 7 118 5 -7 6 5 3 27 -4 31 -3 37 6
25 9 -12 10 -11 5 7 -7 26 4 75 16 67 5 -3 6 1 4 8 -3 8 -15 15 -28 15 -17 2
-18 0 -7 -7 8 -5 12 -12 8 -15 -3 -3 -13 1 -21 10 -14 13 -17 10 -28 -40 -8
-38 -15 -52 -21 -43 -7 9 -8 7 -4 -7 3 -11 1 -83 -3 -160 -5 -88 -4 -142 2
-146 5 -4 7 -19 3 -33 -4 -16 -2 -26 4 -26 7 0 9 -8 5 -20 -4 -12 -2 -20 5
-20 7 0 9 -8 5 -20 -4 -11 -2 -20 4 -20 6 0 8 -7 5 -15 -4 -8 -1 -15 6 -15 6
0 9 -4 6 -8 -8 -13 60 -148 108 -217 54 -75 182 -197 235 -225 81 -41 119 -26
237 91 l91 91 39 -11 c57 -16 207 -13 277 5 112 29 239 106 256 155 10 30 4
69 -11 69 -5 0 -7 4 -4 8 7 12 -149 165 -171 168 -10 2 -19 8 -21 13 -5 14
-52 14 -52 0 0 -5 -4 -7 -10 -4 -5 3 -10 1 -10 -5 0 -6 -4 -9 -9 -6 -5 3 -12
-1 -15 -10 -4 -9 -13 -14 -21 -10 -8 3 -15 2 -15 -2 0 -4 -29 -7 -65 -7 -36 0
-65 4 -65 8 0 5 -4 5 -10 2 -5 -3 -10 -1 -10 5 0 6 -4 8 -10 5 -5 -3 -10 -1
-10 5 0 6 -4 9 -9 6 -15 -10 -81 71 -74 90 5 12 3 15 -6 9 -10 -6 -11 -2 -6
15 5 15 4 20 -4 16 -7 -5 -11 9 -11 44 0 28 4 49 9 46 5 -4 7 4 3 16 -3 14 -1
19 6 14 7 -4 10 -2 7 7 -9 21 30 62 85 91 59 31 132 35 188 9 20 -9 43 -15 51
-14 7 1 11 -1 8 -6 -3 -4 10 -8 28 -8 18 0 31 4 27 9 -3 5 3 6 14 2 10 -4 15
-4 11 0 -4 5 18 35 50 68 32 34 44 48 27 33 -24 -21 -33 -25 -38 -15 -5 10 -7
10 -12 0 -3 -6 -10 -9 -16 -6 -5 4 3 20 19 38 15 17 5 10 -22 -16 -28 -27 -55
-48 -61 -48 -6 0 -19 9 -29 20 -10 11 -22 17 -28 13 -5 -3 -7 -2 -4 4 4 6 -6
21 -21 34 l-27 24 20 -24 20 -24 -27 7 c-15 3 -30 2 -33 -4 -3 -5 0 -8 7 -7 7
2 9 2 5 -1 -5 -2 11 -25 35 -51 27 -29 19 -23 -20 14 -61 58 -79 80 -44 54 9
-7 -1 6 -23 29 -44 47 -44 47 -41 30z m269 -611 c7 3 9 2 4 -2 -4 -5 16 -33
45 -63 l53 -53 -25 -21 c-41 -33 -115 -67 -182 -83 -66 -15 -185 -20 -204 -7
-8 4 36 57 119 143 l130 137 25 -29 c13 -16 29 -26 35 -22z m-22 26 c13 -16
12 -17 -3 -4 -17 13 -22 21 -14 21 2 0 10 -8 17 -17z"/>
<path d="M2569 1833 c-13 -16 -12 -17 4 -4 16 13 21 21 13 21 -2 0 -10 -8 -17
-17z"/>
<path d="M1376 1815 c-9 -26 -7 -32 5 -12 6 10 9 21 6 23 -2 3 -7 -2 -11 -11z"/>
<path d="M1706 1808 c3 -5 10 -6 15 -3 13 9 11 12 -6 12 -8 0 -12 -4 -9 -9z"/>
<path d="M1771 1807 c-8 -10 -7 -14 2 -14 8 0 14 6 14 14 0 7 -1 13 -2 13 -2
0 -8 -6 -14 -13z"/>
</g>
</svg>
